<mxfile host="65bd71144e">
    <diagram id="5Sw5R9j6ZVktWDrgBmM-" name="Página-1">
        <mxGraphModel dx="1355" dy="457" grid="1" gridSize="10" guides="1" tooltips="1" connect="1" arrows="1" fold="1" page="1" pageScale="1" pageWidth="827" pageHeight="1169" math="0" shadow="0">
            <root>
                <mxCell id="0"/>
                <mxCell id="1" parent="0"/>
                <mxCell id="4" style="edgeStyle=none;html=1;entryX=0.5;entryY=0;entryDx=0;entryDy=0;fontColor=#000000;" edge="1" parent="1" source="2" target="3">
                    <mxGeometry relative="1" as="geometry"/>
                </mxCell>
                <mxCell id="2" value="&lt;h1&gt;INICIO&lt;/h1&gt;" style="ellipse;whiteSpace=wrap;html=1;fillColor=#66FF66;" vertex="1" parent="1">
                    <mxGeometry x="220" y="20" width="120" height="80" as="geometry"/>
                </mxCell>
                <mxCell id="3" value="&lt;h3&gt;&lt;font color=&quot;#ffffff&quot;&gt;generar un numero entre 1 y 10&lt;/font&gt;&lt;/h3&gt;" style="shape=parallelogram;perimeter=parallelogramPerimeter;whiteSpace=wrap;html=1;fixedSize=1;fontColor=#000000;fillColor=#FF9933;" vertex="1" parent="1">
                    <mxGeometry x="205" y="150" width="150" height="60" as="geometry"/>
                </mxCell>
                <mxCell id="5" value="&lt;h2&gt;&amp;nbsp; &amp;nbsp; input:&amp;nbsp; &amp;nbsp; &amp;nbsp; &amp;nbsp;numero&lt;/h2&gt;" style="rounded=0;whiteSpace=wrap;html=1;fontColor=#FFFFFF;fillColor=#FF99CC;" vertex="1" parent="1">
                    <mxGeometry x="225" y="260" width="110" height="50" as="geometry"/>
                </mxCell>
                <mxCell id="6" value="" style="endArrow=none;html=1;fontColor=#FFFFFF;exitX=0.5;exitY=0;exitDx=0;exitDy=0;entryX=0.5;entryY=1;entryDx=0;entryDy=0;" edge="1" parent="1" source="5" target="3">
                    <mxGeometry width="50" height="50" relative="1" as="geometry">
                        <mxPoint x="250" y="220" as="sourcePoint"/>
                        <mxPoint x="300" y="170" as="targetPoint"/>
                    </mxGeometry>
                </mxCell>
                <mxCell id="12" style="edgeStyle=none;html=1;entryX=0.5;entryY=0;entryDx=0;entryDy=0;fontColor=#FFFFFF;" edge="1" parent="1" source="8" target="11">
                    <mxGeometry relative="1" as="geometry"/>
                </mxCell>
                <mxCell id="8" value="&lt;h2&gt;numero &amp;gt; aleatorio?&lt;/h2&gt;" style="rhombus;whiteSpace=wrap;html=1;fontColor=#FFFFFF;fillColor=#B266FF;" vertex="1" parent="1">
                    <mxGeometry x="215" y="360" width="130" height="130" as="geometry"/>
                </mxCell>
                <mxCell id="10" value="" style="endArrow=none;html=1;fontColor=#FFFFFF;entryX=0.5;entryY=1;entryDx=0;entryDy=0;exitX=0.5;exitY=0;exitDx=0;exitDy=0;" edge="1" parent="1" source="8" target="5">
                    <mxGeometry width="50" height="50" relative="1" as="geometry">
                        <mxPoint x="250" y="390" as="sourcePoint"/>
                        <mxPoint x="300" y="340" as="targetPoint"/>
                    </mxGeometry>
                </mxCell>
                <mxCell id="14" style="edgeStyle=none;html=1;entryX=0.5;entryY=0;entryDx=0;entryDy=0;fontColor=#FFFFFF;" edge="1" parent="1" source="11" target="13">
                    <mxGeometry relative="1" as="geometry"/>
                </mxCell>
                <mxCell id="21" style="edgeStyle=none;html=1;entryX=1.016;entryY=0.375;entryDx=0;entryDy=0;entryPerimeter=0;fontColor=#000000;" edge="1" parent="1" source="11" target="20">
                    <mxGeometry relative="1" as="geometry"/>
                </mxCell>
                <mxCell id="11" value="&lt;h2&gt;numero &amp;gt; aleatorio?&lt;/h2&gt;" style="rhombus;whiteSpace=wrap;html=1;fontColor=#FFFFFF;fillColor=#B266FF;" vertex="1" parent="1">
                    <mxGeometry x="215" y="550" width="130" height="130" as="geometry"/>
                </mxCell>
                <mxCell id="17" style="edgeStyle=none;html=1;entryX=0.5;entryY=0;entryDx=0;entryDy=0;fontColor=#FFFFFF;" edge="1" parent="1" source="13" target="15">
                    <mxGeometry relative="1" as="geometry"/>
                </mxCell>
                <mxCell id="23" style="edgeStyle=none;html=1;entryX=1.016;entryY=0.375;entryDx=0;entryDy=0;entryPerimeter=0;fontColor=#000000;" edge="1" parent="1" source="13" target="22">
                    <mxGeometry relative="1" as="geometry"/>
                </mxCell>
                <mxCell id="13" value="&lt;h2&gt;outtput:&amp;nbsp; &amp;nbsp; &amp;nbsp; &amp;nbsp; &amp;nbsp; &amp;nbsp; &amp;nbsp; &amp;nbsp;&quot;Lo adivinastes&quot;&lt;/h2&gt;" style="shape=parallelogram;perimeter=parallelogramPerimeter;whiteSpace=wrap;html=1;fixedSize=1;fontColor=#FFFFFF;fillColor=#66B2FF;" vertex="1" parent="1">
                    <mxGeometry x="192.5" y="730" width="175" height="60" as="geometry"/>
                </mxCell>
                <mxCell id="18" style="edgeStyle=none;html=1;entryX=0.5;entryY=0;entryDx=0;entryDy=0;fontColor=#FFFFFF;" edge="1" parent="1" source="15" target="16">
                    <mxGeometry relative="1" as="geometry"/>
                </mxCell>
                <mxCell id="15" value="&lt;h3&gt;¿seguir jugando?&lt;/h3&gt;" style="rhombus;whiteSpace=wrap;html=1;fontColor=#FFFFFF;fillColor=#FF99CC;" vertex="1" parent="1">
                    <mxGeometry x="210" y="840" width="140" height="110" as="geometry"/>
                </mxCell>
                <mxCell id="16" value="&lt;h1&gt;FIN&lt;/h1&gt;" style="ellipse;whiteSpace=wrap;html=1;fontColor=#FFFFFF;fillColor=#B3FF66;" vertex="1" parent="1">
                    <mxGeometry x="220" y="1020" width="120" height="80" as="geometry"/>
                </mxCell>
                <mxCell id="20" value="&lt;h3&gt;&lt;font color=&quot;#000000&quot;&gt;Output:&lt;br&gt;&lt;/font&gt;&lt;font color=&quot;#000000&quot;&gt;&quot;El numero a divinar e mas pequeño&quot;&lt;/font&gt;&lt;/h3&gt;" style="shape=document;whiteSpace=wrap;html=1;boundedLbl=1;fontColor=#FFFFFF;fillColor=#B3FF66;" vertex="1" parent="1">
                    <mxGeometry x="-100" y="585" width="190" height="80" as="geometry"/>
                </mxCell>
                <mxCell id="22" value="&lt;h3&gt;&lt;font color=&quot;#000000&quot;&gt;Output:&lt;br&gt;&lt;/font&gt;&lt;font color=&quot;#000000&quot;&gt;&quot;El numero a divinar e mas grande&quot;&lt;/font&gt;&lt;/h3&gt;" style="shape=document;whiteSpace=wrap;html=1;boundedLbl=1;fontColor=#FFFFFF;fillColor=#B3FF66;size=0.25;" vertex="1" parent="1">
                    <mxGeometry x="-100" y="730" width="190" height="80" as="geometry"/>
                </mxCell>
                <mxCell id="24" value="" style="endArrow=none;html=1;fontColor=#000000;entryX=0;entryY=0.5;entryDx=0;entryDy=0;" edge="1" parent="1" target="15">
                    <mxGeometry width="50" height="50" relative="1" as="geometry">
                        <mxPoint x="-200" y="895" as="sourcePoint"/>
                        <mxPoint x="90" y="880" as="targetPoint"/>
                    </mxGeometry>
                </mxCell>
                <mxCell id="25" value="" style="endArrow=none;html=1;fontColor=#000000;entryX=0;entryY=0.5;entryDx=0;entryDy=0;" edge="1" parent="1" target="22">
                    <mxGeometry width="50" height="50" relative="1" as="geometry">
                        <mxPoint x="-150" y="770" as="sourcePoint"/>
                        <mxPoint x="90" y="880" as="targetPoint"/>
                    </mxGeometry>
                </mxCell>
                <mxCell id="26" value="" style="endArrow=none;html=1;fontColor=#000000;" edge="1" parent="1">
                    <mxGeometry width="50" height="50" relative="1" as="geometry">
                        <mxPoint x="-150" y="280" as="sourcePoint"/>
                        <mxPoint x="-150" y="770" as="targetPoint"/>
                    </mxGeometry>
                </mxCell>
                <mxCell id="27" value="" style="endArrow=none;html=1;fontColor=#000000;" edge="1" parent="1">
                    <mxGeometry width="50" height="50" relative="1" as="geometry">
                        <mxPoint x="220" y="280" as="sourcePoint"/>
                        <mxPoint x="-150" y="280" as="targetPoint"/>
                    </mxGeometry>
                </mxCell>
                <mxCell id="28" value="" style="endArrow=none;html=1;fontColor=#000000;exitX=0;exitY=0.5;exitDx=0;exitDy=0;" edge="1" parent="1" source="20">
                    <mxGeometry width="50" height="50" relative="1" as="geometry">
                        <mxPoint x="40" y="570" as="sourcePoint"/>
                        <mxPoint x="-120" y="620" as="targetPoint"/>
                    </mxGeometry>
                </mxCell>
                <mxCell id="29" value="" style="endArrow=none;html=1;fontColor=#000000;" edge="1" parent="1">
                    <mxGeometry width="50" height="50" relative="1" as="geometry">
                        <mxPoint x="-130" y="280" as="sourcePoint"/>
                        <mxPoint x="-120" y="620" as="targetPoint"/>
                    </mxGeometry>
                </mxCell>
                <mxCell id="30" value="" style="endArrow=none;html=1;fontColor=#000000;" edge="1" parent="1">
                    <mxGeometry width="50" height="50" relative="1" as="geometry">
                        <mxPoint x="-200" y="890" as="sourcePoint"/>
                        <mxPoint x="-200" y="180" as="targetPoint"/>
                    </mxGeometry>
                </mxCell>
                <mxCell id="31" value="" style="endArrow=classic;html=1;fontColor=#000000;entryX=0;entryY=0.5;entryDx=0;entryDy=0;" edge="1" parent="1" target="3">
                    <mxGeometry width="50" height="50" relative="1" as="geometry">
                        <mxPoint x="-200" y="180" as="sourcePoint"/>
                        <mxPoint x="40" y="280" as="targetPoint"/>
                    </mxGeometry>
                </mxCell>
            </root>
        </mxGraphModel>
    </diagram>
</mxfile>